<svg width="1183" height="330" viewBox="0 0 1183 330" fill="none" xmlns="http://www.w3.org/2000/svg">
<path d="M654.328 110.316L655.303 94.5235L656.668 61.6338L657.575 29.2265C657.617 27.3512 657.641 25.4738 657.641 23.5964L657.575 16.5945L664.288 16.6619L670.606 16.5945C669.831 28.036 669.245 39.9833 668.856 52.4342C668.164 72.3926 667.665 91.6853 667.361 110.316L661.236 110.179C660.455 110.179 658.153 110.226 654.328 110.316Z" fill="#141214"/>
<path d="M687.474 110.316L688.779 91.228L691.003 35.4741L691.263 24.6267C691.307 21.1922 691.329 18.5161 691.329 16.5945C694.58 16.6387 697.29 16.6619 699.458 16.6619C701.237 16.6619 703.729 16.6387 706.936 16.5945L714.036 28.6766L757.084 97.1321L759.808 16.5945L765.611 16.6619L771.347 16.5945L769.92 40.6239L768.167 82.9893L767.386 110.316C764.83 110.226 762.312 110.179 759.842 110.179C757.588 110.179 754.962 110.226 751.973 110.316L745.978 100.223L701.864 30.5308C701.69 33.0952 701.519 37.124 701.345 42.6151L699.528 91.1585L699.141 110.316C696.317 110.226 694.426 110.179 693.471 110.179C692.772 110.179 690.773 110.226 687.474 110.316Z" fill="#141214"/>
<path d="M788.211 110.316L789.318 94.73L791.398 41.0368L791.656 29.5005C791.698 27.6694 791.722 25.8615 791.722 24.0768V16.5945C797.149 16.6851 801.556 16.7293 804.941 16.7293C806.983 16.7293 810.109 16.6851 814.319 16.5945C818.532 16.5017 821.679 16.4554 823.761 16.4554C829.277 16.4554 833.357 16.8789 836.005 17.726C838.655 18.573 840.997 19.9911 843.039 21.9823C845.08 23.9735 846.688 26.4346 847.859 29.3635C849.032 32.2945 849.618 35.5205 849.618 39.0456C849.618 44.8128 848.227 49.9962 845.451 54.5982C842.672 59.198 838.881 62.6304 834.087 64.8956C829.289 67.1628 823.937 68.2964 818.036 68.2964C814.909 68.2964 811.436 67.9298 807.617 67.1965C806.965 64.038 806.226 61.1786 805.403 58.6143C808.79 59.3012 812.087 59.6426 815.3 59.6426C818.426 59.6426 821.409 59.2654 824.253 58.511C827.096 57.7567 829.539 56.4967 831.579 54.7351C833.621 52.9736 835.206 50.7632 836.333 48.1104C837.462 45.4554 838.027 42.6404 838.027 39.663C838.027 37.3284 837.614 35.1665 836.79 33.1752C835.963 31.1819 834.824 29.6037 833.371 28.4385C831.914 27.269 830.266 26.481 828.421 26.068C826.575 25.655 823.895 25.4506 820.38 25.4506H814.909L808.07 25.5876L802.993 25.5201C802.475 35.5436 802.105 44.6526 801.889 52.8472L800.984 81.0655C800.678 91.778 800.529 98.9421 800.529 102.556V110.316L794.468 110.179C793.728 110.179 791.644 110.226 788.211 110.316Z" fill="#141214"/>
<path d="M860.621 110.316L862.26 84.5001L864.094 36.2306L864.292 25.7245C864.334 23.0717 864.356 20.0248 864.356 16.5945C874.164 16.6387 884.212 16.6619 894.495 16.6619L915.26 16.5945H921.898C921.595 19.7741 921.399 22.979 921.313 26.205L915.518 25.8615C914.085 25.7709 911.619 25.7035 908.124 25.655C904.631 25.6108 901.168 25.5876 897.738 25.5876C887.493 25.5876 880.353 25.655 876.316 25.7941L875.133 57.9274C881.82 58.0643 887.813 58.1318 893.11 58.1318C898.886 58.1318 906.461 58.0412 915.841 57.8579C915.536 61.0628 915.342 64.2213 915.256 67.3356L892.849 67.1291C888.462 67.1291 882.359 67.2197 874.544 67.403L873.361 101.321L880.137 101.391C892.429 101.391 900.584 101.344 904.601 101.252C908.619 101.161 913.32 100.957 918.705 100.634C918.401 104.024 918.206 107.25 918.12 110.316C907.658 110.226 898.824 110.179 891.62 110.179L860.621 110.316Z" fill="#141214"/>
<path d="M693.056 247.611C688.046 247.611 683.308 248.404 678.839 249.988C674.369 251.573 670.38 254.143 666.875 257.696C663.372 261.253 660.634 265.741 658.67 271.164C656.706 276.586 655.723 282.265 655.723 288.196C655.723 293.434 656.378 298.31 657.689 302.819C658.996 307.329 661.272 311.431 664.507 315.129C667.743 318.825 671.653 321.526 676.24 323.233C680.822 324.938 685.678 325.793 690.801 325.793C696.079 325.793 701.079 324.908 705.797 323.142C710.515 321.375 714.554 318.654 717.905 314.977C721.256 311.301 723.712 306.892 725.273 301.753C726.833 296.614 727.615 291.161 727.615 285.392C727.615 280.193 726.985 275.336 725.736 270.829C724.485 266.32 722.393 262.228 719.466 258.549C716.538 254.872 712.723 252.133 708.021 250.323C703.323 248.517 698.335 247.611 693.056 247.611ZM730.732 320.917C730.389 322.584 730.117 324.371 729.925 326.28C723.107 327.213 717.741 327.885 713.83 328.29C709.92 328.695 706.135 329.011 702.476 329.234C698.815 329.457 695.789 329.569 693.401 329.569C687.276 329.569 681.487 328.737 676.036 327.072C670.584 325.405 665.944 322.643 662.109 318.783C658.274 314.925 655.531 310.466 653.876 305.409C652.215 300.35 651.388 294.897 651.388 289.047C651.388 282.629 652.361 276.464 654.308 270.555C656.252 264.643 659.124 259.698 662.919 255.717C666.711 251.735 671.248 248.76 676.527 246.789C681.805 244.819 687.352 243.833 693.171 243.833C698.989 243.833 704.498 244.859 709.7 246.912C714.899 248.964 719.196 252.04 722.585 256.143C725.976 260.248 728.384 264.776 729.809 269.732C731.234 274.69 731.947 279.989 731.947 285.636C731.947 289.698 731.572 293.609 730.82 297.364C730.069 301.123 729.01 304.526 727.643 307.573C726.276 310.618 724.531 313.42 722.411 315.98C720.719 318.054 718.77 319.921 716.578 321.587C715.151 322.685 713.283 323.903 710.971 325.243C713.86 325.041 716.266 324.778 718.193 324.451C720.121 324.126 722.008 323.688 723.856 323.142C725.706 322.592 727.997 321.851 730.732 320.917Z" fill="#141214"/>
<path d="M792.647 328.29C791.875 328.25 791.164 328.229 790.508 328.229C789.853 328.229 789.137 328.25 788.368 328.29L788.838 315.068C787.95 317.14 787.229 318.631 786.672 319.548C786.11 320.46 785.389 321.425 784.503 322.441C783.614 323.457 782.509 324.422 781.18 325.336C779.849 326.249 778.28 327.03 776.468 327.681C774.657 328.33 772.797 328.798 770.891 329.083C768.982 329.367 767.066 329.508 765.139 329.508C761.824 329.508 758.733 329.123 755.863 328.351C752.991 327.58 750.45 326.238 748.233 324.329C746.017 322.42 744.505 320.197 743.695 317.658C742.888 315.119 742.48 312.245 742.48 309.033C742.48 306.558 742.74 300.432 743.258 290.664C743.777 280.893 744.035 272.922 744.035 266.746C745.038 266.788 745.791 266.807 746.293 266.807C746.795 266.807 747.548 266.788 748.551 266.746C748.241 270.24 747.79 277.492 747.192 288.5C746.595 299.509 746.295 306.393 746.295 309.158C746.295 312.245 746.681 314.864 747.452 317.017C748.223 319.171 749.56 320.949 751.471 322.35C753.379 323.752 755.537 324.736 757.947 325.305C760.357 325.876 762.831 326.158 765.377 326.158C768.039 326.158 770.591 325.802 773.037 325.09C775.487 324.382 777.521 323.499 779.138 322.441C780.758 321.385 782.185 320.083 783.42 318.541C784.845 316.752 786.058 314.683 787.061 312.325C787.946 310.253 788.604 307.685 789.028 304.617C789.451 301.551 789.813 295.995 790.113 287.95C790.37 280.234 790.522 273.164 790.558 266.746C791.601 266.788 792.371 266.807 792.872 266.807C793.372 266.807 794.125 266.788 795.128 266.746L792.994 309.4L792.764 318.602C792.687 322.38 792.647 325.61 792.647 328.29Z" fill="#141214"/>
<path d="M809.757 289.352L850.905 289.413C850.865 286.611 850.711 284.459 850.442 282.955C850.174 281.453 849.67 279.908 848.935 278.324C848.203 276.739 847.326 275.367 846.303 274.21C845.282 273.054 844.085 272.078 842.714 271.286C841.347 270.494 839.812 269.895 838.116 269.488C836.419 269.082 834.643 268.877 832.79 268.877C830.746 268.877 828.74 269.122 826.773 269.611C824.803 270.097 823.01 270.767 821.39 271.621C819.769 272.474 818.254 273.561 816.848 274.88C815.441 276.202 814.282 277.632 813.376 279.177C812.469 280.719 811.776 282.194 811.292 283.595C810.809 284.997 810.299 286.916 809.757 289.352ZM850.212 322.257C849.904 323.782 849.672 325.325 849.516 326.888C846.321 327.864 843.449 328.544 840.908 328.93C838.364 329.315 835.764 329.509 833.106 329.509C828.482 329.509 824.389 328.85 820.826 327.531C817.261 326.212 814.21 324.02 811.666 320.957C809.124 317.893 807.309 314.452 806.232 310.638C805.153 306.822 804.616 302.764 804.616 298.461C804.616 292.82 805.541 287.536 807.387 282.603C809.238 277.672 812.283 273.585 816.522 270.338C820.756 267.091 826.018 265.466 832.297 265.466C836.611 265.466 840.522 266.309 844.027 267.995C847.532 269.68 850.26 272.434 852.206 276.252C854.151 280.07 855.122 284.601 855.122 289.839C855.122 290.814 855.086 291.75 855.01 292.643L809.238 292.704C809.046 295.34 808.95 297.325 808.95 298.665C808.95 302.517 809.488 306.249 810.569 309.856C811.65 313.466 813.281 316.487 815.461 318.919C817.639 321.355 820.253 323.158 823.3 324.334C826.35 325.508 829.569 326.096 832.964 326.096C838.136 326.096 843.883 324.817 850.212 322.257Z" fill="#141214"/>
<path d="M865.691 251.146L865.867 245.114C866.826 245.154 867.812 245.175 868.813 245.175C869.814 245.175 870.797 245.154 871.76 245.114L871.586 251.146C870.625 251.066 869.642 251.024 868.639 251.024C867.638 251.024 866.655 251.066 865.691 251.146ZM863.557 328.289C863.989 322.198 864.492 311.574 865.068 296.419C865.637 281.269 865.923 271.379 865.923 266.745C866.912 266.787 867.674 266.808 868.209 266.808C868.779 266.808 869.56 266.787 870.551 266.745C870.012 274.464 869.48 284.986 868.963 298.31C868.443 311.635 868.185 321.627 868.185 328.289C867.182 328.251 866.411 328.228 865.871 328.228C865.332 328.228 864.56 328.251 863.557 328.289Z" fill="#141214"/>
<path d="M881.803 328.29L882.438 320.003C882.554 318.336 882.65 316.672 882.728 315.005L884.227 274.363C884.265 271.399 884.285 268.859 884.285 266.746C885.056 266.788 885.807 266.807 886.541 266.807C887.272 266.807 888.006 266.788 888.739 266.746L888.142 279.542C889.375 277.065 890.512 275.115 891.553 273.693C892.592 272.271 893.989 270.912 895.743 269.61C897.496 268.31 899.498 267.294 901.75 266.563C904.006 265.832 906.344 265.467 908.772 265.467C910.853 265.467 912.835 265.749 914.726 266.32C916.614 266.887 918.223 267.599 919.552 268.453C920.88 269.306 921.987 270.261 922.875 271.316C923.76 272.372 924.443 273.47 924.925 274.606C925.407 275.745 925.88 277.309 926.34 279.298C927.113 277.714 927.845 276.344 928.538 275.185C929.231 274.028 930.167 272.84 931.344 271.62C932.519 270.402 933.916 269.336 935.534 268.421C937.151 267.507 938.955 266.788 940.942 266.259C942.924 265.733 944.958 265.467 947.041 265.467C950.238 265.467 953.266 266.044 956.117 267.203C958.969 268.362 961.175 270.219 962.736 272.779C964.296 275.337 965.08 278.405 965.08 281.978C965.08 283.972 964.944 286.987 964.676 291.028C964.406 295.07 964.11 300.82 963.783 308.273C963.457 315.728 963.275 322.401 963.235 328.29C962.232 328.25 961.461 328.229 960.921 328.229C960.382 328.229 959.61 328.25 958.607 328.29C958.953 323.294 959.3 317.323 959.648 310.376L960.517 293.618C960.747 289.435 960.863 285.982 960.863 283.259C960.863 281.837 960.807 280.609 960.691 279.572C960.575 278.537 960.316 277.522 959.91 276.527C959.506 275.531 958.919 274.587 958.147 273.693C957.376 272.8 956.443 272.016 955.344 271.348C954.247 270.676 952.928 270.149 951.385 269.763C949.844 269.376 948.206 269.182 946.471 269.182C943.967 269.182 941.655 269.591 939.537 270.402C937.417 271.215 935.51 272.361 933.814 273.845C932.121 275.328 930.722 277.094 929.627 279.146C928.526 281.197 927.633 284.012 926.937 287.587C926.332 290.632 925.912 296.077 925.68 303.917L925.037 328.29C924.034 328.25 923.26 328.229 922.723 328.229C922.181 328.229 921.41 328.25 920.407 328.29C920.798 322.725 921.09 317.281 921.286 311.96L921.987 296.604C922.223 291.728 922.339 287.686 922.339 284.477C922.339 281.46 922.069 279.146 921.528 277.534C920.988 275.922 920.111 274.485 918.896 273.221C917.681 271.957 916.156 270.969 914.326 270.254C912.495 269.54 910.481 269.182 908.283 269.182C905.893 269.182 903.605 269.601 901.427 270.436C899.248 271.27 897.31 272.452 895.613 273.98C893.917 275.505 892.482 277.381 891.305 279.599C890.128 281.818 889.173 284.762 888.441 288.426C887.826 291.604 887.344 297.255 887.003 305.38C886.621 314.358 886.431 321.994 886.431 328.29C885.428 328.25 884.656 328.229 884.117 328.229C883.579 328.229 882.806 328.25 881.803 328.29Z" fill="#141214"/>
<path d="M980.424 273.205C980.694 271.825 980.904 270.24 981.06 268.452C984.99 267.316 988.398 266.532 991.289 266.106C994.179 265.681 997.106 265.466 1000.07 265.466C1003.5 265.466 1006.69 265.782 1009.64 266.41C1012.59 267.04 1014.99 268.095 1016.86 269.579C1018.73 271.062 1019.96 272.758 1020.56 274.667C1021.16 276.579 1021.45 278.526 1021.45 280.517C1021.45 282.55 1021.39 285.117 1021.25 288.225C1021.12 291.335 1020.94 294.674 1020.71 298.25C1020.48 301.824 1020.27 306.282 1020.08 311.624C1019.88 316.968 1019.79 320.817 1019.79 323.173V328.291C1018.78 328.251 1017.97 328.228 1017.35 328.228C1016.7 328.228 1015.89 328.251 1014.93 328.291C1015.46 322.073 1015.84 317.039 1016.05 313.179C1016.26 309.321 1016.43 305.166 1016.57 300.718C1016.7 296.267 1016.89 292.116 1017.12 288.256C1015.92 289.312 1015.01 290.091 1014.37 290.599C1013.74 291.105 1013.04 291.562 1012.29 291.967C1011.54 292.373 1010.64 292.789 1009.58 293.214C1008.52 293.64 1007.55 294.006 1006.66 294.31C1005.77 294.613 1003.62 295.254 1000.22 296.227C996.805 297.199 994.371 297.928 992.906 298.417C989.593 299.552 987.031 300.627 985.22 301.638C983.254 302.736 981.619 303.952 980.308 305.29C979.151 306.466 978.304 307.703 977.766 309.001C977.149 310.543 976.841 312.184 976.841 313.929C976.841 316.565 977.593 318.858 979.095 320.805C980.598 322.752 982.495 324.119 984.789 324.909C987.079 325.702 989.844 326.098 993.082 326.098C994.698 326.098 996.259 326.007 997.762 325.824C999.265 325.64 1000.68 325.396 1002.01 325.09C1003.34 324.785 1005.26 324.208 1007.76 323.354C1007.41 324.899 1007.12 326.443 1006.89 327.986C1003.77 328.635 1001.24 329.052 999.291 329.235C997.348 329.418 995.508 329.509 993.773 329.509C990.538 329.509 987.55 329.246 984.815 328.719C982.079 328.19 979.789 327.155 977.938 325.613C976.09 324.073 974.721 322.288 973.836 320.259C972.951 318.23 972.507 316.099 972.507 313.868C972.507 312.163 972.777 310.509 973.314 308.906C973.856 307.306 974.683 305.773 975.8 304.312C976.723 303.097 977.954 301.959 979.495 300.905C981.304 299.605 983.308 298.511 985.502 297.618C988.044 296.562 990.778 295.589 993.703 294.695C994.513 294.453 997.69 293.581 1003.23 292.081C1005.74 291.392 1008.11 290.528 1010.34 289.491C1012.57 288.458 1014.3 287.019 1015.54 285.173C1016.77 283.326 1017.38 281.448 1017.38 279.543C1017.38 278.163 1017.1 276.831 1016.52 275.55C1015.94 274.271 1014.91 273.064 1013.43 271.926C1011.94 270.79 1010.11 269.998 1007.91 269.549C1005.72 269.103 1003.41 268.877 1000.98 268.877C998.172 268.877 995.536 269.071 993.07 269.459C990.608 269.844 988.529 270.291 986.835 270.797C985.14 271.307 983.004 272.107 980.424 273.205Z" fill="#141214"/>
<path d="M1080.27 271.012C1077.54 270.118 1075.17 269.539 1073.16 269.275C1071.16 269.012 1069.25 268.877 1067.44 268.877C1063.13 268.877 1059 269.528 1055.07 270.826C1051.14 272.124 1047.72 274.236 1044.79 277.158C1041.86 280.081 1039.59 283.772 1038 288.237C1036.4 292.7 1035.6 297.104 1035.6 301.445C1035.6 306.234 1036.47 310.596 1038.22 314.53C1039.98 318.466 1042.46 321.378 1045.68 323.266C1048.89 325.152 1052.48 326.098 1056.45 326.098C1058.79 326.098 1060.94 325.803 1062.89 325.215C1064.83 324.625 1066.58 323.805 1068.14 322.749C1069.7 321.694 1071.18 320.284 1072.59 318.518C1073.99 316.753 1075.22 314.675 1076.28 312.279C1077.34 309.886 1078.12 307.269 1078.62 304.426C1079.12 301.588 1079.47 297.224 1079.66 291.339L1080.27 271.012ZM1083.16 328.352C1082.15 328.31 1081.38 328.291 1080.88 328.291H1078.53L1079.37 312.768C1078.45 315.122 1077.59 316.989 1076.81 318.369C1076.01 319.749 1075.01 321.1 1073.8 322.417C1072.59 323.736 1071.11 324.924 1069.38 325.98C1067.65 327.033 1065.65 327.884 1063.37 328.536C1061.1 329.182 1058.75 329.509 1056.33 329.509C1052.59 329.509 1049.1 328.799 1045.85 327.379C1042.59 325.956 1039.84 323.938 1037.59 321.321C1035.34 318.704 1033.72 315.68 1032.74 312.25C1031.75 308.819 1031.26 305.199 1031.26 301.383C1031.26 296.229 1032.17 291.257 1033.98 286.469C1035.79 281.678 1038.42 277.651 1041.86 274.385C1045.31 271.119 1049.22 268.814 1053.59 267.474C1057.97 266.138 1062.58 265.466 1067.43 265.466C1071.4 265.466 1075.73 265.915 1080.43 266.808C1080.63 262.948 1080.73 259.252 1080.73 255.716C1080.73 252.589 1080.67 249.054 1080.56 245.113C1081.56 245.155 1082.37 245.174 1082.98 245.174C1083.6 245.174 1084.39 245.155 1085.35 245.113C1084.92 252.716 1084.59 260.685 1084.36 269.018L1083.54 298.533C1083.29 309.835 1083.16 317.273 1083.16 320.849V328.352Z" fill="#141214"/>
<path d="M1100.2 273.205C1100.47 271.825 1100.68 270.24 1100.83 268.452C1104.76 267.316 1108.17 266.532 1111.06 266.106C1113.95 265.681 1116.88 265.466 1119.85 265.466C1123.28 265.466 1126.47 265.782 1129.41 266.41C1132.36 267.04 1134.77 268.095 1136.64 269.579C1138.5 271.062 1139.73 272.758 1140.33 274.667C1140.93 276.579 1141.23 278.526 1141.23 280.517C1141.23 282.55 1141.16 285.117 1141.03 288.225C1140.89 291.335 1140.71 294.674 1140.48 298.25C1140.25 301.824 1140.04 306.282 1139.85 311.624C1139.66 316.968 1139.56 320.817 1139.56 323.173V328.291C1138.56 328.251 1137.75 328.228 1137.13 328.228C1136.47 328.228 1135.66 328.251 1134.7 328.291C1135.24 322.073 1135.61 317.039 1135.82 313.179C1136.04 309.321 1136.21 305.166 1136.34 300.718C1136.48 296.267 1136.66 292.116 1136.89 288.256C1135.7 289.312 1134.79 290.091 1134.15 290.599C1133.51 291.105 1132.82 291.562 1132.07 291.967C1131.32 292.373 1130.41 292.789 1129.35 293.214C1128.29 293.64 1127.32 294.006 1126.43 294.31C1125.55 294.613 1123.4 295.254 1119.99 296.227C1116.58 297.199 1114.15 297.928 1112.68 298.417C1109.37 299.552 1106.81 300.627 1104.99 301.638C1103.03 302.736 1101.39 303.952 1100.08 305.29C1098.93 306.466 1098.08 307.703 1097.54 309.001C1096.92 310.543 1096.62 312.184 1096.62 313.929C1096.62 316.565 1097.37 318.858 1098.87 320.805C1100.37 322.752 1102.27 324.119 1104.56 324.909C1106.85 325.702 1109.62 326.098 1112.86 326.098C1114.47 326.098 1116.03 326.007 1117.54 325.824C1119.04 325.64 1120.45 325.396 1121.78 325.09C1123.11 324.785 1125.03 324.208 1127.53 323.354C1127.19 324.899 1126.9 326.443 1126.67 327.986C1123.55 328.635 1121.01 329.052 1119.07 329.235C1117.12 329.418 1115.28 329.509 1113.55 329.509C1110.31 329.509 1107.33 329.246 1104.59 328.719C1101.85 328.19 1099.56 327.155 1097.71 325.613C1095.87 324.073 1094.5 322.288 1093.61 320.259C1092.72 318.23 1092.28 316.099 1092.28 313.868C1092.28 312.163 1092.55 310.509 1093.09 308.906C1093.63 307.306 1094.46 305.773 1095.58 304.312C1096.5 303.097 1097.73 301.959 1099.27 300.905C1101.08 299.605 1103.08 298.511 1105.28 297.618C1107.82 296.562 1110.55 295.589 1113.48 294.695C1114.29 294.453 1117.46 293.581 1123.01 292.081C1125.51 291.392 1127.88 290.528 1130.11 289.491C1132.35 288.458 1134.08 287.019 1135.31 285.173C1136.54 283.326 1137.16 281.448 1137.16 279.543C1137.16 278.163 1136.87 276.831 1136.29 275.55C1135.71 274.271 1134.69 273.064 1133.2 271.926C1131.72 270.79 1129.88 269.998 1127.69 269.549C1125.49 269.103 1123.18 268.877 1120.76 268.877C1117.95 268.877 1115.31 269.071 1112.85 269.459C1110.38 269.844 1108.3 270.291 1106.61 270.797C1104.91 271.307 1102.78 272.107 1100.2 273.205Z" fill="#141214"/>
<path d="M1149.37 327.072C1149.29 325.121 1149.13 323.395 1148.9 321.893C1151.95 323.315 1154.82 324.307 1157.51 324.878C1160.21 325.447 1162.67 325.73 1164.91 325.73C1167.88 325.73 1170.41 325.285 1172.51 324.394C1174.61 323.5 1176.2 322.181 1177.28 320.437C1178.36 318.69 1178.9 316.863 1178.9 314.956C1178.9 314.105 1178.81 313.281 1178.64 312.491C1178.46 311.699 1178.18 310.908 1177.8 310.116C1177.41 309.324 1176.98 308.595 1176.5 307.925C1176.02 307.257 1175.34 306.494 1174.48 305.643C1173.61 304.791 1172.6 303.837 1171.44 302.781C1170.29 301.728 1168.47 300.122 1166.01 297.971C1163.54 295.822 1161.51 293.965 1159.91 292.402C1158.31 290.84 1156.99 289.258 1155.92 287.654C1154.87 286.051 1154.11 284.58 1153.67 283.24C1153.23 281.902 1153 280.543 1153 279.163C1153 276.809 1153.71 274.527 1155.12 272.315C1156.52 270.102 1158.54 268.408 1161.18 267.232C1163.82 266.055 1167.17 265.467 1171.21 265.467C1174.6 265.467 1178.41 265.932 1182.65 266.868C1182.69 268.655 1182.8 270.383 1183 272.047C1180.53 270.949 1178.33 270.21 1176.38 269.822C1174.44 269.436 1172.46 269.245 1170.46 269.245C1167.95 269.245 1165.64 269.641 1163.52 270.431C1161.4 271.223 1159.82 272.38 1158.76 273.903C1157.7 275.423 1157.17 277.077 1157.17 278.861C1157.17 279.837 1157.28 280.749 1157.51 281.601C1157.74 282.454 1158.11 283.316 1158.61 284.188C1159.11 285.063 1159.76 285.954 1160.55 286.868C1161.34 287.781 1162.36 288.836 1163.61 290.033C1164.86 291.23 1166.67 292.874 1169.04 294.964C1171.41 297.054 1173.17 298.637 1174.33 299.713C1175.49 300.786 1176.48 301.77 1177.31 302.663C1178.13 303.557 1178.93 304.541 1179.68 305.615C1180.43 306.692 1181.04 307.737 1181.5 308.751C1181.96 309.766 1182.3 310.79 1182.54 311.825C1182.77 312.86 1182.88 313.905 1182.88 314.96C1182.88 317.518 1182.17 319.931 1180.75 322.202C1179.32 324.478 1177.25 326.261 1174.53 327.561C1171.82 328.861 1168.55 329.508 1164.74 329.508C1163.31 329.508 1161.53 329.388 1159.39 329.143C1157.25 328.899 1155.54 328.646 1154.25 328.38C1152.96 328.117 1151.33 327.681 1149.37 327.072Z" fill="#141214"/>
<path d="M650.441 219.219C650.98 212.314 651.44 203.966 651.822 194.174L652.919 163.83C653.262 153.389 653.436 144.126 653.436 136.041L664.941 136.104L677.828 136.041C681.567 136.041 684.602 136.277 686.934 136.743C689.264 137.21 691.373 138.308 693.261 140.034C695.15 141.76 696.586 143.884 697.568 146.402C698.549 148.922 699.042 151.581 699.042 154.383C699.042 159.381 697.819 163.819 695.371 167.698C692.925 171.579 689.63 174.472 685.49 176.382C681.349 178.291 676.657 179.245 671.419 179.245C668.454 179.245 665.178 178.878 661.595 178.149C661.288 176.972 660.9 175.711 660.44 174.371C663.987 175.143 667.385 175.53 670.628 175.53C673.945 175.53 677.121 175.132 680.148 174.336C683.18 173.541 685.765 172.216 687.906 170.362C690.048 168.509 691.716 166.185 692.913 163.391C694.11 160.601 694.708 157.654 694.708 154.558C694.708 152.439 694.35 150.399 693.637 148.443C692.923 146.486 691.938 144.887 690.685 143.643C689.432 142.398 687.85 141.463 685.939 140.83C684.031 140.198 680.837 139.882 676.361 139.882H666.403L661.599 139.819L658.184 139.76C657.685 149.436 657.165 163.258 656.628 181.228C656.088 199.197 655.818 209.726 655.818 212.815L655.878 219.219C654.875 219.179 653.97 219.158 653.158 219.158C652.311 219.158 651.404 219.179 650.441 219.219Z" fill="#141214"/>
<path d="M705.338 219.219C705.8 210.649 706.242 200.571 706.665 188.995C707.089 177.418 707.301 168.804 707.301 163.159L707.245 157.675C708.014 157.717 708.728 157.736 709.383 157.736C710.076 157.736 710.79 157.717 711.523 157.675L711.004 169.192C712.313 166.428 713.528 164.337 714.645 162.915C715.762 161.493 717.061 160.304 718.543 159.35C720.028 158.397 721.761 157.664 723.745 157.156C725.729 156.651 727.8 156.396 729.956 156.396C731.537 156.396 733.135 156.598 734.754 157.005C734.754 158.387 734.832 159.767 734.984 161.147C732.4 160.456 730.166 160.11 728.277 160.11C726.425 160.11 724.758 160.376 723.275 160.903C721.789 161.432 720.402 162.203 719.111 163.221C717.818 164.234 716.555 165.625 715.322 167.393C714.089 169.16 713.164 171.04 712.546 173.029C711.777 175.347 711.253 178.17 710.986 181.502C710.578 186.7 710.32 192.631 710.21 199.294C710.06 208.273 709.987 214.914 709.987 219.219C708.977 219.179 708.206 219.158 707.662 219.158C707.121 219.158 706.346 219.179 705.338 219.219Z" fill="#141214"/>
<path d="M766.532 159.806C761.946 159.806 757.687 160.984 753.758 163.338C749.83 165.692 746.938 169.282 745.092 174.111C743.243 178.941 742.318 184.236 742.318 189.999C742.318 194.057 742.844 197.871 743.907 201.443C744.964 205.012 746.67 208.027 749.018 210.482C751.368 212.937 753.904 214.64 756.618 215.596C759.334 216.551 762.195 217.025 765.201 217.025C768.63 217.025 771.847 216.437 774.853 215.259C777.858 214.083 780.504 212.115 782.8 209.357C785.09 206.597 786.777 203.208 787.854 199.19C788.933 195.172 789.473 190.914 789.473 186.406C789.473 182.228 788.943 178.3 787.886 174.63C786.823 170.957 785.176 168.016 782.944 165.803C780.708 163.593 778.164 162.04 775.315 161.146C772.465 160.253 769.535 159.806 766.532 159.806ZM766.646 156.395C770.229 156.395 773.698 156.924 777.049 157.98C780.398 159.037 783.358 160.833 785.918 163.372C788.48 165.911 790.436 169.234 791.785 173.334C793.134 177.439 793.805 181.786 793.805 186.375C793.805 191.331 793.094 196.084 791.669 200.634C790.242 205.183 788.222 208.992 785.602 212.058C782.98 215.126 779.907 217.29 776.384 218.548C772.859 219.808 769.112 220.436 765.143 220.436C762.369 220.436 759.644 220.101 756.966 219.433C754.288 218.761 751.784 217.634 749.452 216.049C747.122 214.465 745.082 212.417 743.329 209.894C741.575 207.376 740.246 204.391 739.34 200.939C738.433 197.486 737.982 193.891 737.982 190.153C737.982 183.612 739.139 177.63 741.451 172.209C743.761 166.785 747.22 162.792 751.824 160.234C756.426 157.674 761.368 156.395 766.646 156.395Z" fill="#141214"/>
<path d="M853.307 161.391C849.65 160.66 846.723 160.213 844.525 160.051C842.332 159.889 840.384 159.806 838.691 159.806C834.263 159.806 830.163 160.335 826.388 161.391C822.615 162.449 819.156 164.438 816.016 167.362C812.879 170.289 810.441 174.046 808.708 178.638C806.974 183.227 806.109 187.98 806.109 192.894C806.109 197.608 806.908 201.873 808.509 205.691C810.105 209.511 812.591 212.385 815.964 214.313C819.334 216.243 823.06 217.208 827.145 217.208C829.921 217.208 832.501 216.884 834.889 216.232C836.739 215.746 838.484 214.964 840.118 213.887C841.759 212.811 843.328 211.38 844.83 209.591C846.333 207.804 847.652 205.701 848.789 203.284C849.926 200.868 850.745 198.4 851.247 195.88C851.894 192.346 852.354 187.818 852.62 182.293L853.307 161.391ZM806.744 241.461C811.83 243.003 816.03 244.04 819.344 244.569C822.657 245.096 825.702 245.361 828.472 245.361C831.747 245.361 834.791 244.912 837.606 244.019C840.186 243.248 842.38 242.171 844.193 240.791C845.81 239.531 847.062 238.13 847.948 236.587C848.991 234.756 849.768 232.48 850.29 229.76C850.809 227.038 851.127 224.115 851.243 220.986C851.519 215.95 851.719 210.261 851.841 203.925C851.067 205.874 850.404 207.408 849.846 208.525C849.285 209.641 848.507 210.821 847.504 212.058C846.501 213.299 845.334 214.416 844.007 215.411C842.676 216.405 841.153 217.299 839.441 218.091C837.722 218.883 835.826 219.503 833.746 219.949C831.663 220.396 829.505 220.619 827.271 220.619C823.684 220.619 820.363 220.133 817.297 219.157C814.232 218.184 811.496 216.538 809.086 214.222C806.678 211.907 804.858 208.931 803.625 205.295C802.392 201.66 801.776 197.831 801.776 193.809C801.776 188.324 802.701 183.065 804.55 178.029C806.396 172.991 809.028 168.835 812.437 165.565C815.846 162.297 819.785 159.95 824.255 158.529C828.724 157.107 833.558 156.395 838.761 156.395C844.037 156.395 850.436 157.107 857.947 158.529L857.358 165.536C857.24 166.876 857.12 168.625 857.004 170.776L855.721 198.682L855.064 224.214C854.908 227.263 854.52 229.964 853.907 232.32C853.251 234.838 852.25 237.093 850.901 239.084C849.552 241.073 847.856 242.759 845.816 244.141C843.773 245.523 841.193 246.619 838.07 247.432C834.679 248.326 830.866 248.772 826.625 248.772C823.506 248.772 820.461 248.6 817.493 248.256C814.528 247.911 811.078 247.249 807.15 246.273C807.072 244.607 806.938 243.003 806.744 241.461Z" fill="#141214"/>
<path d="M868.904 219.219C869.363 210.649 869.805 200.571 870.231 188.995C870.652 177.418 870.866 168.804 870.866 163.159L870.808 157.675C871.579 157.717 872.291 157.736 872.946 157.736C873.642 157.736 874.353 157.717 875.087 157.675L874.567 169.192C875.878 166.428 877.093 164.337 878.208 162.915C879.325 161.493 880.626 160.304 882.107 159.35C883.591 158.397 885.324 157.664 887.31 157.156C889.293 156.651 891.365 156.396 893.519 156.396C895.1 156.396 896.701 156.598 898.317 157.005C898.317 158.387 898.395 159.767 898.549 161.147C895.965 160.456 893.731 160.11 891.843 160.11C889.99 160.11 888.324 160.376 886.839 160.903C885.354 161.432 883.965 162.203 882.674 163.221C881.383 164.234 880.12 165.625 878.887 167.393C877.654 169.16 876.729 171.04 876.112 173.029C875.34 175.347 874.819 178.17 874.551 181.502C874.141 186.7 873.884 192.631 873.776 199.294C873.626 208.273 873.552 214.914 873.552 219.219C872.543 219.179 871.769 219.158 871.226 219.158C870.684 219.158 869.911 219.179 868.904 219.219Z" fill="#141214"/>
<path d="M906.81 164.134C907.079 162.754 907.289 161.169 907.445 159.38C911.374 158.244 914.783 157.461 917.674 157.035C920.564 156.609 923.492 156.394 926.457 156.394C929.886 156.394 933.074 156.71 936.021 157.338C938.969 157.968 941.375 159.024 943.243 160.507C945.114 161.991 946.347 163.687 946.944 165.596C947.542 167.507 947.839 169.454 947.839 171.445C947.839 173.479 947.772 176.045 947.64 179.153C947.502 182.263 947.32 185.603 947.09 189.179C946.86 192.752 946.65 197.211 946.459 202.553C946.265 207.896 946.171 211.746 946.171 214.102V219.22C945.168 219.18 944.356 219.157 943.739 219.157C943.083 219.157 942.272 219.18 941.309 219.22C941.846 213.002 942.222 207.968 942.434 204.108C942.648 200.249 942.82 196.094 942.953 191.646C943.087 187.196 943.271 183.045 943.501 179.185C942.308 180.24 941.395 181.02 940.757 181.528C940.122 182.034 939.426 182.491 938.677 182.895C937.924 183.302 937.018 183.717 935.961 184.143C934.902 184.568 933.929 184.935 933.044 185.238C932.156 185.542 930.008 186.182 926.599 187.156C923.19 188.127 920.756 188.856 919.291 189.345C915.978 190.481 913.414 191.556 911.604 192.567C909.639 193.665 908.003 194.881 906.692 196.219C905.537 197.394 904.689 198.631 904.152 199.929C903.534 201.472 903.227 203.113 903.227 204.858C903.227 207.494 903.976 209.786 905.479 211.733C906.981 213.68 908.878 215.048 911.174 215.838C913.464 216.63 916.228 217.026 919.465 217.026C921.084 217.026 922.644 216.936 924.147 216.752C925.65 216.569 927.065 216.325 928.394 216.019C929.723 215.714 931.639 215.136 934.143 214.283C933.797 215.827 933.505 217.372 933.276 218.914C930.156 219.563 927.622 219.98 925.676 220.164C923.732 220.347 921.891 220.438 920.158 220.438C916.923 220.438 913.936 220.174 911.2 219.647C908.464 219.119 906.174 218.084 904.324 216.542C902.473 215.001 901.106 213.217 900.221 211.187C899.336 209.158 898.89 207.028 898.89 204.797C898.89 203.092 899.16 201.438 899.697 199.834C900.239 198.235 901.066 196.701 902.185 195.241C903.107 194.025 904.34 192.887 905.88 191.834C907.687 190.534 909.691 189.44 911.887 188.547C914.429 187.491 917.161 186.518 920.089 185.624C920.896 185.382 924.073 184.509 929.619 183.009C932.12 182.32 934.489 181.456 936.723 180.42C938.955 179.387 940.687 177.948 941.92 176.102C943.151 174.254 943.767 172.377 943.767 170.472C943.767 169.092 943.479 167.76 942.902 166.479C942.322 165.2 941.293 163.993 939.814 162.855C938.329 161.719 936.493 160.927 934.297 160.478C932.103 160.031 929.792 159.806 927.366 159.806C924.557 159.806 921.919 160 919.455 160.387C916.993 160.773 914.913 161.22 913.218 161.725C911.524 162.235 909.387 163.036 906.81 164.134Z" fill="#141214"/>
<path d="M959.443 219.219L960.077 210.932C960.195 209.265 960.289 207.6 960.367 205.934L961.867 165.292C961.903 162.327 961.923 159.788 961.923 157.675C962.697 157.717 963.446 157.736 964.18 157.736C964.913 157.736 965.646 157.717 966.378 157.675L965.782 170.471C967.015 167.993 968.152 166.044 969.191 164.622C970.233 163.199 971.629 161.84 973.384 160.538C975.136 159.238 977.137 158.223 979.391 157.491C981.645 156.76 983.985 156.396 986.411 156.396C988.491 156.396 990.476 156.678 992.364 157.249C994.253 157.816 995.861 158.528 997.192 159.381C998.519 160.235 999.626 161.189 1000.51 162.245C1001.4 163.301 1002.08 164.398 1002.57 165.534C1003.05 166.674 1003.52 168.238 1003.98 170.227C1004.75 168.642 1005.49 167.273 1006.18 166.114C1006.87 164.957 1007.81 163.768 1008.98 162.548C1010.16 161.33 1011.55 160.264 1013.17 159.35C1014.79 158.435 1016.59 157.717 1018.58 157.188C1020.56 156.661 1022.6 156.396 1024.68 156.396C1027.88 156.396 1030.91 156.973 1033.76 158.132C1036.61 159.291 1038.82 161.147 1040.38 163.707C1041.94 166.265 1042.72 169.333 1042.72 172.907C1042.72 174.9 1042.58 177.915 1042.31 181.957C1042.04 185.998 1041.75 191.749 1041.42 199.201C1041.1 206.656 1040.91 213.33 1040.88 219.219C1039.87 219.179 1039.1 219.158 1038.56 219.158C1038.02 219.158 1037.25 219.179 1036.25 219.219C1036.59 214.223 1036.94 208.251 1037.29 201.304L1038.16 184.547C1038.39 180.364 1038.5 176.91 1038.5 174.188C1038.5 172.766 1038.45 171.537 1038.33 170.501C1038.22 169.466 1037.95 168.45 1037.55 167.456C1037.15 166.459 1036.56 165.515 1035.79 164.622C1035.01 163.728 1034.08 162.945 1032.98 162.277C1031.89 161.604 1030.57 161.078 1029.02 160.692C1027.48 160.304 1025.85 160.11 1024.11 160.11C1021.61 160.11 1019.3 160.519 1017.18 161.33C1015.06 162.144 1013.15 163.29 1011.45 164.773C1009.76 166.257 1008.36 168.023 1007.27 170.075C1006.17 172.125 1005.27 174.94 1004.58 178.516C1003.97 181.561 1003.55 187.006 1003.32 194.846L1002.68 219.219C1001.67 219.179 1000.9 219.158 1000.36 219.158C999.822 219.158 999.049 219.179 998.045 219.219C998.437 213.654 998.729 208.209 998.925 202.889L999.626 187.532C999.862 182.656 999.978 178.615 999.978 175.406C999.978 172.389 999.708 170.075 999.168 168.463C998.627 166.851 997.75 165.414 996.537 164.15C995.322 162.886 993.797 161.897 991.964 161.183C990.134 160.469 988.122 160.11 985.923 160.11C983.531 160.11 981.245 160.53 979.065 161.364C976.887 162.199 974.951 163.381 973.254 164.908C971.557 166.434 970.121 168.309 968.946 170.528C967.767 172.747 966.813 175.69 966.08 179.355C965.464 182.532 964.983 188.183 964.643 196.308C964.262 205.287 964.07 212.923 964.07 219.219C963.066 219.179 962.297 219.158 961.758 219.158C961.218 219.158 960.445 219.179 959.443 219.219Z" fill="#141214"/>
<path d="M1057.95 164.134C1058.22 162.754 1058.43 161.169 1058.58 159.38C1062.51 158.244 1065.92 157.461 1068.81 157.035C1071.7 156.609 1074.63 156.394 1077.59 156.394C1081.02 156.394 1084.21 156.71 1087.16 157.338C1090.11 157.968 1092.51 159.024 1094.38 160.507C1096.25 161.991 1097.48 163.687 1098.08 165.596C1098.68 167.507 1098.98 169.454 1098.98 171.445C1098.98 173.479 1098.91 176.045 1098.78 179.153C1098.64 182.263 1098.46 185.603 1098.23 189.179C1098 192.752 1097.79 197.211 1097.59 202.553C1097.4 207.896 1097.31 211.746 1097.31 214.102V219.22C1096.3 219.18 1095.49 219.157 1094.88 219.157C1094.22 219.157 1093.41 219.18 1092.45 219.22C1092.98 213.002 1093.36 207.968 1093.57 204.108C1093.78 200.249 1093.96 196.094 1094.09 191.646C1094.23 187.196 1094.41 183.045 1094.64 179.185C1093.45 180.24 1092.53 181.02 1091.89 181.528C1091.26 182.034 1090.56 182.491 1089.81 182.895C1089.06 183.302 1088.16 183.717 1087.1 184.143C1086.04 184.568 1085.07 184.935 1084.18 185.238C1083.29 185.542 1081.14 186.182 1077.74 187.156C1074.33 188.127 1071.89 188.856 1070.43 189.345C1067.11 190.481 1064.55 191.556 1062.74 192.567C1060.78 193.665 1059.14 194.881 1057.83 196.219C1056.67 197.394 1055.83 198.631 1055.29 199.929C1054.67 201.472 1054.36 203.113 1054.36 204.858C1054.36 207.494 1055.11 209.786 1056.62 211.733C1058.12 213.68 1060.02 215.048 1062.31 215.838C1064.6 216.63 1067.37 217.026 1070.6 217.026C1072.22 217.026 1073.78 216.936 1075.28 216.752C1076.79 216.569 1078.2 216.325 1079.53 216.019C1080.86 215.714 1082.78 215.136 1085.28 214.283C1084.93 215.827 1084.64 217.372 1084.41 218.914C1081.29 219.563 1078.76 219.98 1076.81 220.164C1074.87 220.347 1073.03 220.438 1071.29 220.438C1068.06 220.438 1065.07 220.174 1062.34 219.647C1059.6 219.119 1057.31 218.084 1055.46 216.542C1053.61 215.001 1052.24 213.217 1051.36 211.187C1050.47 209.158 1050.03 207.028 1050.03 204.797C1050.03 203.092 1050.3 201.438 1050.84 199.834C1051.38 198.235 1052.2 196.701 1053.32 195.241C1054.24 194.025 1055.48 192.887 1057.02 191.834C1058.83 190.534 1060.83 189.44 1063.02 188.547C1065.57 187.491 1068.3 186.518 1071.22 185.624C1072.03 185.382 1075.21 184.509 1080.75 183.009C1083.26 182.32 1085.63 181.456 1087.86 180.42C1090.09 179.387 1091.82 177.948 1093.06 176.102C1094.29 174.254 1094.91 172.377 1094.91 170.472C1094.91 169.092 1094.62 167.76 1094.04 166.479C1093.46 165.2 1092.43 163.993 1090.95 162.855C1089.47 161.719 1087.63 160.927 1085.44 160.478C1083.24 160.031 1080.93 159.806 1078.5 159.806C1075.69 159.806 1073.06 160 1070.59 160.387C1068.13 160.773 1066.05 161.22 1064.36 161.725C1062.66 162.235 1060.53 163.036 1057.95 164.134Z" fill="#141214"/>
<path d="M144.118 120.981L184.277 167.386L231.605 120.899H221.862V103.467C221.862 15.228 157.939 5.69971 130.453 5.69971L129.79 5.70182C90.5087 5.89567 54.2528 26.3514 30.3207 61.8245C9.87568 92.1288 1.47067 128.607 7.10798 160.087C16.7759 111.535 54.1589 62.6357 99.8849 62.6357L100.742 62.642C119.94 62.9033 136.642 70.2803 146.566 82.8829C154.418 92.8558 157.401 105.216 155.191 118.619L154.801 120.981H144.118ZM183.965 175.482L131.868 115.282H150.195C151.428 104.489 148.756 94.5899 142.408 86.5239C133.497 75.2067 118.286 68.5798 100.672 68.3417L99.8849 68.3354C52.7301 68.3354 14.9335 124.216 10.5052 174.367L5.25552 175.024C-6.34484 139.246 1.57058 94.6026 25.9163 58.5184C50.8696 21.5346 88.7202 0.206495 129.764 0.00210594L130.453 0C158.095 0 181.503 8.18187 198.149 23.6585C217.471 41.6258 227.267 68.4766 227.267 103.467V115.199H245.338L183.965 175.482Z" fill="#3478B7"/>
<path d="M286.497 96.8114H266.276L328.208 35.4968L384.452 96.8114H364.86C368.023 187.425 305.194 326.688 166.799 326.688C97.2831 326.688 68.9978 302.5 56.1584 291.868C37.9999 276.831 -2.95844 220.304 6.99729 169.332C24.6886 216.642 60.8965 274.714 134.833 274.714C254.268 274.714 294.083 142.78 286.497 96.8114Z" fill="#3478B7"/>
<path d="M183.548 261.751C205.322 261.751 222.972 243.141 222.972 220.178C222.972 197.225 205.322 178.607 183.548 178.607C161.774 178.607 144.121 197.225 144.121 220.178C144.121 243.141 161.774 261.751 183.548 261.751Z" fill="#E69627"/>
<path d="M27.6397 191.299L35.5371 146.567H44.5437L36.6482 191.299H27.6397Z" fill="#141214"/>
<path d="M42.7298 191.299L49.6061 152.362C50.2675 148.592 53.1271 145.846 56.96 145.846C61.2764 145.846 62.6692 149.294 63.5964 152.307L69.9871 175.228H70.169L75.2288 146.567H84.2353L77.347 185.569C76.7415 189.01 74.993 192.015 71.1602 192.015C67.3873 192.015 66.2362 189.588 64.9693 185.361L57.5195 159.22L57.3796 159.342L51.7323 191.299H42.7298Z" fill="#141214"/>
<path d="M81.5295 191.299L86.8651 161.074C88.3019 152.922 95.0903 145.846 104.327 145.846C113.133 145.846 117.905 152.602 116.409 161.074C114.936 169.425 108.061 176.313 98.9491 176.313H95.6678L97.2465 167.381C102.284 167.381 106.413 166.684 107.39 161.144C108.095 157.13 106.273 154.77 102.75 154.77C99.2288 154.77 96.567 157.13 95.8596 161.144L90.534 191.299H81.5295Z" fill="#141214"/>
<path d="M144.619 155.487H139.167C132.321 155.487 128.168 160.483 126.686 164.773H142.98L141.509 173.09H125.215C125.183 177.38 127.575 182.372 134.419 182.372H139.873L138.298 191.3H133.632C119.094 191.3 114.796 179.944 116.744 168.933C118.686 157.923 126.991 146.564 141.529 146.564H146.193L144.619 155.487Z" fill="#141214"/>
<path d="M494.135 277.212C485.442 288.197 474.983 294.613 463.724 294.613C433.553 294.613 409.094 248.568 409.094 191.776C409.094 119.607 463.724 44.5293 463.724 44.5293C463.724 44.5293 498.224 92.6092 512.39 148.043C519.574 159.866 530.031 167.382 540.738 167.382C541.172 167.382 541.599 167.352 542.027 167.327C530.063 82.611 463.724 0.377125 463.724 0.377125C463.724 0.377125 383.577 98.3384 383.577 192.509C383.577 266.616 419.461 326.687 463.724 326.687C480.742 326.687 496.517 317.804 509.492 302.666C504.668 295.171 499.437 286.616 494.135 277.212Z" fill="#E69627"/>
<path d="M541.68 1.38896C524.619 1.38896 508.804 10.3146 495.801 25.5195C500.928 33.478 506.518 42.6355 512.165 52.7432C520.138 44.003 530.026 38.828 540.739 38.828C567.161 38.828 588.579 70.3144 588.579 109.159C588.579 148.003 567.161 179.492 540.739 179.492C519.775 179.492 501.973 159.662 495.507 132.074C487.963 110.339 477.979 90.6332 469.754 76.1848C464.451 94.1204 461.465 114.319 461.465 135.685C461.465 228.551 541.68 327.977 541.68 327.977C541.68 327.977 621.896 229.934 621.896 135.685C621.896 61.5151 585.982 1.38896 541.68 1.38896Z" fill="#CF4C39"/>
</svg>
